<svg xmlns="http://www.w3.org/2000/svg" width="973.987" height="683.953" viewBox="0 0 973.987 683.953">
  <g id="Group_126" data-name="Group 126" transform="translate(-536 -286)">
    <path id="Path_298" data-name="Path 298" d="M1084.8,176.93c-4.86,29.85-15.92,58.41-20.67,88.27-3.79,23.85-3.54,48.47-10.61,71.57-7.14,23.36-21.44,44.06-28.42,67.44-.16.53-.32,1.07-.47,1.6a125.206,125.206,0,0,0-3.71,18.8q-.39,3.16-.65,6.32c-1.81,22,.71,44.63,1.49,66.87,1.08,30.81-2.27,64.2-22.63,87.35-14.22,16.16-34.76,25-54.6,33.4-30,12.66-60.45,25.44-92.72,29.79-60.48,8.14-122.94-13.92-182.39-.2-49.82,11.5-91,46.72-139.67,62.41-49.27,15.89-102.8,10.7-153.62.9-93.32-18-188.71-54.61-246.61-130-7.64-9.95-14.75-21-16.21-33.46-1.08-9.13,1-18.31,3-27.27,9-40,18.75-81.52,44.68-113.22,22.33-27.29,55.63-45.89,71.12-77.57,20.28-41.47,3.63-91-16-132.73-4.73-10-9.71-20.29-10.71-31.35C203.47,145,216.53,125,233.6,112.81S271.34,94.72,291.54,89C327.45,79,368.61,72.56,402,55.87c32.59-16.3,58.55-21.24,96-18.34A969.24,969.24,0,0,1,661.4,64.4c56.8,14.45,115.48,34.2,172.81,21.78,22.86-5,44.34-14.87,66.94-20.89,18.9-5,38.43-7.31,58-8.42,39.57-2.23,84.41,2.74,109.3,33.59C1087.39,114,1089.67,147.1,1084.8,176.93Z" transform="translate(422.986 249.253)" fill="#ffecf8"/>
    <path id="Path_299" data-name="Path 299" d="M922.538,362.577l15.388,45.661a6.575,6.575,0,0,1-4.2,8.394l-31.854,10.73a35.069,35.069,0,0,0,.965-8.883c-.112-1.623-.574-8.24-.574-8.24,1.707,1.637,5.3,2.28,8.534,1.2,9.611-3.232,13.556-14.4,9.793-25.377-3.539-10.52-14.787-15.5-25.839-11.779-13.752,4.63-17.934,16.312-14.549,26.37,1.567,4.672,6.015,9.639,10.618,10.156.7.084.979-.154.923-.783s-.224-2.8-.336-3.9a.993.993,0,0,0-.532-.839,13.108,13.108,0,0,1-4.826-6.463,14.549,14.549,0,0,1,9.792-18.676c7.82-2.63,15.109.853,17.669,8.478,2.9,8.617.573,16.046-5.106,17.948a4.882,4.882,0,0,1-6.659-4.2c-.378-4.085,0-8.757-.937-11.5-2.322-6.869-11.793-2.63-8.7,6.547a12.282,12.282,0,0,0,2.546,4.421c1.735,18.592,1.189,19.026,4.574,26.272h.322l-11.5,3.875a6.575,6.575,0,0,1-8.394-4.2l-15.388-45.662a6.575,6.575,0,0,1,4.2-8.394l45.662-15.388a6.575,6.575,0,0,1,8.407,4.225Z" transform="translate(247.986 48.253)" fill="#8b939f" opacity="0.2"/>
    <path id="Path_300" data-name="Path 300" d="M977.769,308.719a26.07,26.07,0,1,0,13.225-15.06,26.07,26.07,0,0,0-13.225,15.06Zm40.85,14.038a17.006,17.006,0,1,1-10.589-21.6A17.006,17.006,0,0,1,1018.619,322.757Zm-31.063-45.923a6.016,6.016,0,1,1-4.682.253,6.016,6.016,0,0,1,4.682-.253Zm11.471-14.4c-7.861-2.286-15.321-2.868-22.9.882s-11.691,10.027-14.72,17.567-11.37,31.705-13.637,39.847-2.848,15.3.862,22.9,10.027,11.691,17.567,14.72,31.705,11.371,39.847,13.637,15.321,2.868,22.9-.882,11.692-10.027,14.72-17.567,11.371-31.705,13.637-39.847,2.868-15.321-.882-22.9-10.027-11.691-17.567-14.72S1007.168,264.72,999.026,262.434Zm44.84,26.852a17.226,17.226,0,0,1,6.016,12.313c.341,7.219-5.395,22.059-7.8,29.138s-7.019,22.32-11.692,27.795a17.226,17.226,0,0,1-12.313,6.016c-7.219.341-22.059-5.394-29.139-7.8s-22.32-7.019-27.795-11.691a17.227,17.227,0,0,1-6.016-12.313c-.341-7.219,5.395-22.059,7.8-29.138s7.019-22.32,11.691-27.795a17.226,17.226,0,0,1,12.313-6.016c7.219-.341,22.059,5.394,29.138,7.8s22.34,7.019,27.815,11.711Z" transform="translate(267.986 386.253)" fill="#8b939f" opacity="0.2"/>
  </g>
</svg>
