<svg xmlns="http://www.w3.org/2000/svg" width="427.975" height="932.729" viewBox="0 0 427.975 932.729"><path d="M1097.651,267.27V662c-.015,14.205,3.443,27.07-7.624,27.088l-919.689-1.353c-11.067-.019.015-11.53,0-25.735V619.214c3.458-18.24,17.205-34.115,32.193-38.6,20.113-6.016,40.952,2.4,60.6,10.6s40.589,16.374,60.614,9.876c58.12-18.8,64.762-139.662,122.618-159.687,33.884-11.726,67.193,18.111,94.6,46.259,27.406,28.132,60.6,58.081,94.536,46.581,24.849-8.428,41.816-36.785,58.658-61.7s38.947-49.733,64.549-46.854c26.8,3.008,46.3,35.289,72.368,43.846,34.273,11.227,68.158-21.666,88.4-58.9s33.672-81.371,59.912-111.787C1010.722,262.509,1056.536,253.421,1097.651,267.27Z" transform="translate(-261.112 1098.151) rotate(-90)" fill="#122c6f"/></svg>