<svg xmlns="http://www.w3.org/2000/svg" width="285.277" height="936.178" viewBox="0 0 285.277 936.178"><path d="M1101.1,265.217V528.333c-.015,9.469,3.456,18.044-7.652,18.056l-923.09-.9c-11.108-.013.015-7.686,0-17.154V499.814c3.471-12.158,17.269-22.74,32.312-25.732,20.187-4.01,41.1,1.6,60.825,7.065s40.739,10.914,60.838,6.583c58.335-12.534,65-93.095,123.072-106.443,34.01-7.816,67.441,12.072,94.948,30.835s60.826,38.715,94.886,31.049c24.941-5.618,41.971-24.52,58.875-41.128S735.2,368.894,760.9,370.813c26.9,2,46.474,23.523,72.636,29.227,34.4,7.484,68.41-14.442,88.722-39.262s33.8-54.24,60.134-74.514C1013.848,262.043,1059.831,255.986,1101.1,265.217Z" transform="translate(546.389 -165.423) rotate(90)"/></svg>