<svg xmlns="http://www.w3.org/2000/svg" xmlns:xlink="http://www.w3.org/1999/xlink" width="778.895" height="201.06" viewBox="0 0 778.895 201.06"><defs><linearGradient id="a" x1="0.5" x2="0.5" y2="1" gradientUnits="objectBoundingBox"><stop offset="0" stop-color="#122c6f"/><stop offset="1" stop-color="#2116e8"/></linearGradient></defs><path d="M940.232,264.014V450.044c-.012,6.695,9.2,12.12,0,12.128H169.508c-9.2-.009.012-5.434,0-12.128V429.88c2.874-8.6,14.3-16.078,26.757-18.193,16.717-2.835,34.037,1.129,50.368,5s33.735,7.717,50.378,4.654c48.306-8.861,53.826-65.82,101.913-75.258,28.163-5.526,55.846,8.535,78.624,21.8s50.368,27.373,78.573,21.953c20.653-3.972,34.755-17.336,48.753-29.078s32.37-23.438,53.649-22.082c22.278,1.418,38.484,16.631,60.148,20.664,28.486,5.291,56.648-10.211,73.469-27.759s27.986-38.349,49.8-52.683C867.982,261.771,906.06,257.488,940.232,264.014Z" transform="translate(944.318 462.172) rotate(180)" fill="url(#a)"/></svg>